<?xml version="1.0" encoding="UTF-8"?>
<svg width="1200" height="800" viewBox="0 0 1200 800" fill="none" xmlns="http://www.w3.org/2000/svg">
  <!-- Background -->
  <rect width="1200" height="800" fill="#1E293B"/>
  
  <!-- Desktop wallpaper -->
  <rect x="0" y="0" width="1200" height="750" fill="#0F172A"/>
  
  <!-- Taskbar -->
  <rect x="0" y="750" width="1200" height="50" fill="#334155"/>
  
  <!-- Start menu button -->
  <circle cx="30" cy="775" r="15" fill="#3B82F6"/>
  
  <!-- Desktop icons -->
  <rect x="30" y="30" width="60" height="60" rx="5" fill="#475569"/>
  <rect x="30" y="110" width="60" height="60" rx="5" fill="#475569"/>
  <rect x="30" y="190" width="60" height="60" rx="5" fill="#475569"/>
  
  <!-- Window -->
  <rect x="150" y="100" width="900" height="600" rx="8" fill="#1E293B"/>
  <rect x="150" y="100" width="900" height="40" rx="8" fill="#334155"/>
  <circle cx="180" cy="120" r="8" fill="#EF4444"/>
  <circle cx="210" cy="120" r="8" fill="#F59E0B"/>
  <circle cx="240" cy="120" r="8" fill="#10B981"/>
  
  <!-- Window content -->
  <rect x="170" y="160" width="860" height="520" rx="4" fill="#0F172A"/>
  
  <!-- Terminal content -->
  <text x="190" y="200" font-family="monospace" font-size="14" fill="#94A3B8">snigdha@os:~$ ls -la</text>
  <text x="190" y="230" font-family="monospace" font-size="14" fill="#94A3B8">total 32</text>
  <text x="190" y="260" font-family="monospace" font-size="14" fill="#94A3B8">drwxr-xr-x  5 snigdha snigdha 4096 May 10 15:42 .</text>
  <text x="190" y="290" font-family="monospace" font-size="14" fill="#94A3B8">drwxr-xr-x  3 root     root     4096 May  8 10:23 ..</text>
  <text x="190" y="320" font-family="monospace" font-size="14" fill="#94A3B8">-rw-------  1 snigdha snigdha  220 May  8 10:23 .bash_history</text>
  <text x="190" y="350" font-family="monospace" font-size="14" fill="#94A3B8">-rw-r--r--  1 snigdha snigdha 3771 May  8 10:23 .bashrc</text>
  <text x="190" y="380" font-family="monospace" font-size="14" fill="#94A3B8">drwxr-xr-x  3 snigdha snigdha 4096 May 10 15:36 Documents</text>
  <text x="190" y="410" font-family="monospace" font-size="14" fill="#94A3B8">snigdha@os:~$ _</text>
  
  <!-- Logo watermark -->
  <g opacity="0.2" transform="translate(900, 700)">
    <circle cx="25" cy="25" r="20" fill="#3B82F6"/>
    <text x="25" y="30" font-family="sans-serif" font-size="8" fill="white" text-anchor="middle">Snigdha OS</text>
  </g>
</svg> 