<?xml version="1.0" encoding="UTF-8"?>
<svg width="200" height="200" viewBox="0 0 200 200" fill="none" xmlns="http://www.w3.org/2000/svg">
  <circle cx="100" cy="100" r="90" fill="#3B82F6" opacity="0.9"/>
  <circle cx="100" cy="100" r="70" fill="#2563EB" opacity="0.8"/>
  <path d="M60 80C60 70 70 60 100 60C130 60 140 70 140 80C140 90 130 100 100 100C70 100 60 90 60 80Z" fill="white"/>
  <path d="M60 120C60 110 70 100 100 100C130 100 140 110 140 120C140 130 130 140 100 140C70 140 60 130 60 120Z" fill="white"/>
  <circle cx="85" cy="85" r="10" fill="#1E40AF"/>
  <circle cx="85" cy="115" r="10" fill="#1E40AF"/>
</svg> 